<mxfile host="app.diagrams.net" modified="2021-12-22T13:23:37.953Z" agent="5.0 (X11)" etag="eRxTfm53woeXrtne1mwS" version="15.8.8" type="github" pages="4">
  <diagram id="zz59rFfIZMGQYRph7jfA" name="AllInEventLoop">
    <mxGraphModel dx="1075" dy="565" grid="1" gridSize="10" guides="1" tooltips="1" connect="1" arrows="1" fold="1" page="1" pageScale="1" pageWidth="827" pageHeight="1169" math="0" shadow="0">
      <root>
        <mxCell id="0" />
        <mxCell id="1" parent="0" />
        <mxCell id="azWmAVO9Vkafey1T7_jj-2" value="" style="rounded=0;whiteSpace=wrap;html=1;" vertex="1" parent="1">
          <mxGeometry x="170" y="165" width="500" height="130" as="geometry" />
        </mxCell>
        <mxCell id="azWmAVO9Vkafey1T7_jj-3" value="Channel Pipeline" style="text;html=1;strokeColor=none;fillColor=none;align=center;verticalAlign=middle;whiteSpace=wrap;rounded=0;" vertex="1" parent="1">
          <mxGeometry x="170" y="165" width="120" height="30" as="geometry" />
        </mxCell>
        <mxCell id="azWmAVO9Vkafey1T7_jj-5" value="bytes in" style="shape=flexArrow;endArrow=classic;html=1;rounded=0;width=30;endSize=6.5;fillColor=default;" edge="1" parent="1">
          <mxGeometry width="50" height="50" relative="1" as="geometry">
            <mxPoint x="100" y="230" as="sourcePoint" />
            <mxPoint x="190" y="230" as="targetPoint" />
          </mxGeometry>
        </mxCell>
        <mxCell id="azWmAVO9Vkafey1T7_jj-7" value="&lt;div&gt;Socket&lt;/div&gt;" style="rounded=1;whiteSpace=wrap;html=1;" vertex="1" parent="1">
          <mxGeometry x="30" y="200" width="60" height="60" as="geometry" />
        </mxCell>
        <mxCell id="azWmAVO9Vkafey1T7_jj-9" value="Handler A" style="rounded=1;whiteSpace=wrap;html=1;fillColor=#f8cecc;strokeColor=#b85450;" vertex="1" parent="1">
          <mxGeometry x="200" y="200" width="120" height="60" as="geometry" />
        </mxCell>
        <mxCell id="azWmAVO9Vkafey1T7_jj-10" value="&lt;div&gt;Handler B&lt;/div&gt;" style="rounded=1;whiteSpace=wrap;html=1;fillColor=#f8cecc;strokeColor=#b85450;" vertex="1" parent="1">
          <mxGeometry x="360" y="200" width="120" height="60" as="geometry" />
        </mxCell>
        <mxCell id="azWmAVO9Vkafey1T7_jj-11" value="&lt;div&gt;Handler C&lt;/div&gt;" style="rounded=1;whiteSpace=wrap;html=1;fillColor=#f8cecc;strokeColor=#b85450;" vertex="1" parent="1">
          <mxGeometry x="530" y="200" width="120" height="60" as="geometry" />
        </mxCell>
        <mxCell id="azWmAVO9Vkafey1T7_jj-12" value="" style="shape=flexArrow;endArrow=classic;html=1;rounded=0;width=16;endSize=5;fillColor=default;" edge="1" parent="1">
          <mxGeometry width="50" height="50" relative="1" as="geometry">
            <mxPoint x="324" y="229.66" as="sourcePoint" />
            <mxPoint x="354" y="229.66" as="targetPoint" />
          </mxGeometry>
        </mxCell>
        <mxCell id="azWmAVO9Vkafey1T7_jj-13" value="" style="shape=flexArrow;endArrow=classic;html=1;rounded=0;width=16;endSize=5;fillColor=default;" edge="1" parent="1">
          <mxGeometry width="50" height="50" relative="1" as="geometry">
            <mxPoint x="490" y="229.65999999999997" as="sourcePoint" />
            <mxPoint x="520" y="229.65999999999997" as="targetPoint" />
          </mxGeometry>
        </mxCell>
        <mxCell id="azWmAVO9Vkafey1T7_jj-15" value="Event Loop Thread" style="rounded=1;whiteSpace=wrap;html=1;fillColor=#f8cecc;strokeColor=#b85450;" vertex="1" parent="1">
          <mxGeometry x="180" y="120" width="120" height="30" as="geometry" />
        </mxCell>
        <mxCell id="azWmAVO9Vkafey1T7_jj-16" value="Event Executor Thread" style="rounded=1;whiteSpace=wrap;html=1;fillColor=#e1d5e7;strokeColor=#9673a6;" vertex="1" parent="1">
          <mxGeometry x="320" y="120" width="150" height="30" as="geometry" />
        </mxCell>
        <mxCell id="azWmAVO9Vkafey1T7_jj-17" value="별도의 세팅을 하지 않는 경우 모든 Handler는 Event Loop의 Thread에서 동작합니다" style="text;html=1;strokeColor=none;fillColor=none;align=center;verticalAlign=middle;whiteSpace=wrap;rounded=0;fontColor=default;" vertex="1" parent="1">
          <mxGeometry x="30" y="60" width="660" height="30" as="geometry" />
        </mxCell>
      </root>
    </mxGraphModel>
  </diagram>
  <diagram id="_MqKTvxesX9TR26SuvpX" name="RunInOtherThread">
    <mxGraphModel dx="896" dy="471" grid="1" gridSize="10" guides="1" tooltips="1" connect="1" arrows="1" fold="1" page="1" pageScale="1" pageWidth="827" pageHeight="1169" math="0" shadow="0">
      <root>
        <mxCell id="euDLK1eizWkCfmcPAtjE-0" />
        <mxCell id="euDLK1eizWkCfmcPAtjE-1" parent="euDLK1eizWkCfmcPAtjE-0" />
        <mxCell id="euDLK1eizWkCfmcPAtjE-2" value="" style="rounded=0;whiteSpace=wrap;html=1;" vertex="1" parent="euDLK1eizWkCfmcPAtjE-1">
          <mxGeometry x="170" y="165" width="500" height="130" as="geometry" />
        </mxCell>
        <mxCell id="euDLK1eizWkCfmcPAtjE-3" value="Channel Pipeline" style="text;html=1;strokeColor=none;fillColor=none;align=center;verticalAlign=middle;whiteSpace=wrap;rounded=0;" vertex="1" parent="euDLK1eizWkCfmcPAtjE-1">
          <mxGeometry x="170" y="165" width="120" height="30" as="geometry" />
        </mxCell>
        <mxCell id="euDLK1eizWkCfmcPAtjE-4" value="bytes in" style="shape=flexArrow;endArrow=classic;html=1;rounded=0;width=30;endSize=6.5;fillColor=default;" edge="1" parent="euDLK1eizWkCfmcPAtjE-1">
          <mxGeometry width="50" height="50" relative="1" as="geometry">
            <mxPoint x="100" y="230" as="sourcePoint" />
            <mxPoint x="190" y="230" as="targetPoint" />
          </mxGeometry>
        </mxCell>
        <mxCell id="euDLK1eizWkCfmcPAtjE-5" value="&lt;div&gt;Socket&lt;/div&gt;" style="rounded=1;whiteSpace=wrap;html=1;" vertex="1" parent="euDLK1eizWkCfmcPAtjE-1">
          <mxGeometry x="30" y="200" width="60" height="60" as="geometry" />
        </mxCell>
        <mxCell id="euDLK1eizWkCfmcPAtjE-6" value="Handler A" style="rounded=1;whiteSpace=wrap;html=1;fillColor=#f8cecc;strokeColor=#b85450;" vertex="1" parent="euDLK1eizWkCfmcPAtjE-1">
          <mxGeometry x="200" y="200" width="120" height="60" as="geometry" />
        </mxCell>
        <mxCell id="euDLK1eizWkCfmcPAtjE-7" value="&lt;div&gt;Handler B&lt;/div&gt;" style="rounded=1;whiteSpace=wrap;html=1;fillColor=#e1d5e7;strokeColor=#9673a6;" vertex="1" parent="euDLK1eizWkCfmcPAtjE-1">
          <mxGeometry x="360" y="200" width="120" height="60" as="geometry" />
        </mxCell>
        <mxCell id="euDLK1eizWkCfmcPAtjE-8" value="&lt;div&gt;Handler C&lt;/div&gt;" style="rounded=1;whiteSpace=wrap;html=1;fillColor=#f8cecc;strokeColor=#b85450;" vertex="1" parent="euDLK1eizWkCfmcPAtjE-1">
          <mxGeometry x="530" y="200" width="120" height="60" as="geometry" />
        </mxCell>
        <mxCell id="euDLK1eizWkCfmcPAtjE-9" value="" style="shape=flexArrow;endArrow=classic;html=1;rounded=0;width=16;endSize=5;fillColor=default;" edge="1" parent="euDLK1eizWkCfmcPAtjE-1">
          <mxGeometry width="50" height="50" relative="1" as="geometry">
            <mxPoint x="324" y="229.65999999999997" as="sourcePoint" />
            <mxPoint x="354" y="229.65999999999997" as="targetPoint" />
          </mxGeometry>
        </mxCell>
        <mxCell id="euDLK1eizWkCfmcPAtjE-10" value="" style="shape=flexArrow;endArrow=classic;html=1;rounded=0;width=16;endSize=5;fillColor=default;" edge="1" parent="euDLK1eizWkCfmcPAtjE-1">
          <mxGeometry width="50" height="50" relative="1" as="geometry">
            <mxPoint x="490" y="229.65999999999997" as="sourcePoint" />
            <mxPoint x="520" y="229.65999999999997" as="targetPoint" />
          </mxGeometry>
        </mxCell>
        <mxCell id="euDLK1eizWkCfmcPAtjE-11" value="Event Loop Thread" style="rounded=1;whiteSpace=wrap;html=1;fillColor=#f8cecc;strokeColor=#b85450;" vertex="1" parent="euDLK1eizWkCfmcPAtjE-1">
          <mxGeometry x="180" y="120" width="120" height="30" as="geometry" />
        </mxCell>
        <mxCell id="euDLK1eizWkCfmcPAtjE-12" value="Event Executor Thread" style="rounded=1;whiteSpace=wrap;html=1;fillColor=#e1d5e7;strokeColor=#9673a6;" vertex="1" parent="euDLK1eizWkCfmcPAtjE-1">
          <mxGeometry x="320" y="120" width="150" height="30" as="geometry" />
        </mxCell>
        <mxCell id="euDLK1eizWkCfmcPAtjE-13" value="특정 Handler만 다른 쓰레드에서 실행되도록 만들 수 있습니다." style="text;html=1;strokeColor=none;fillColor=none;align=center;verticalAlign=middle;whiteSpace=wrap;rounded=0;fontColor=default;" vertex="1" parent="euDLK1eizWkCfmcPAtjE-1">
          <mxGeometry x="30" y="60" width="660" height="30" as="geometry" />
        </mxCell>
      </root>
    </mxGraphModel>
  </diagram>
  <diagram name="AllEventLoopEventloop" id="mkE_J1ncvNjPaaQ1YXrM">
    <mxGraphModel dx="1536" dy="807" grid="1" gridSize="10" guides="1" tooltips="1" connect="1" arrows="1" fold="1" page="1" pageScale="1" pageWidth="827" pageHeight="1169" math="0" shadow="0">
      <root>
        <mxCell id="0dVxlM_UZ9HLrQCLjUoz-0" />
        <mxCell id="0dVxlM_UZ9HLrQCLjUoz-1" parent="0dVxlM_UZ9HLrQCLjUoz-0" />
        <mxCell id="0dVxlM_UZ9HLrQCLjUoz-2" value="" style="rounded=0;whiteSpace=wrap;html=1;" vertex="1" parent="0dVxlM_UZ9HLrQCLjUoz-1">
          <mxGeometry x="170" y="165" width="500" height="130" as="geometry" />
        </mxCell>
        <mxCell id="0dVxlM_UZ9HLrQCLjUoz-3" value="Channel Pipeline" style="text;html=1;strokeColor=none;fillColor=none;align=center;verticalAlign=middle;whiteSpace=wrap;rounded=0;" vertex="1" parent="0dVxlM_UZ9HLrQCLjUoz-1">
          <mxGeometry x="170" y="165" width="120" height="30" as="geometry" />
        </mxCell>
        <mxCell id="0dVxlM_UZ9HLrQCLjUoz-4" value="bytes in" style="shape=flexArrow;endArrow=classic;html=1;rounded=0;width=30;endSize=6.5;fillColor=default;" edge="1" parent="0dVxlM_UZ9HLrQCLjUoz-1">
          <mxGeometry width="50" height="50" relative="1" as="geometry">
            <mxPoint x="100.00000000000011" y="230" as="sourcePoint" />
            <mxPoint x="190" y="230" as="targetPoint" />
          </mxGeometry>
        </mxCell>
        <mxCell id="0dVxlM_UZ9HLrQCLjUoz-5" value="&lt;div&gt;Socket&lt;/div&gt;" style="rounded=1;whiteSpace=wrap;html=1;" vertex="1" parent="0dVxlM_UZ9HLrQCLjUoz-1">
          <mxGeometry x="30" y="200" width="60" height="60" as="geometry" />
        </mxCell>
        <mxCell id="0dVxlM_UZ9HLrQCLjUoz-6" value="Handler A" style="rounded=1;whiteSpace=wrap;html=1;fillColor=#f8cecc;strokeColor=#b85450;" vertex="1" parent="0dVxlM_UZ9HLrQCLjUoz-1">
          <mxGeometry x="200" y="200" width="120" height="60" as="geometry" />
        </mxCell>
        <mxCell id="0dVxlM_UZ9HLrQCLjUoz-7" value="&lt;div&gt;Handler B&lt;/div&gt;" style="rounded=1;whiteSpace=wrap;html=1;fillColor=#f8cecc;strokeColor=#b85450;" vertex="1" parent="0dVxlM_UZ9HLrQCLjUoz-1">
          <mxGeometry x="360" y="200" width="120" height="60" as="geometry" />
        </mxCell>
        <mxCell id="0dVxlM_UZ9HLrQCLjUoz-8" value="&lt;div&gt;Handler C&lt;/div&gt;" style="rounded=1;whiteSpace=wrap;html=1;fillColor=#f8cecc;strokeColor=#b85450;" vertex="1" parent="0dVxlM_UZ9HLrQCLjUoz-1">
          <mxGeometry x="530" y="200" width="120" height="60" as="geometry" />
        </mxCell>
        <mxCell id="0dVxlM_UZ9HLrQCLjUoz-9" value="" style="shape=flexArrow;endArrow=classic;html=1;rounded=0;width=16;endSize=5;fillColor=default;" edge="1" parent="0dVxlM_UZ9HLrQCLjUoz-1">
          <mxGeometry width="50" height="50" relative="1" as="geometry">
            <mxPoint x="324" y="229.65999999999997" as="sourcePoint" />
            <mxPoint x="354" y="229.65999999999997" as="targetPoint" />
          </mxGeometry>
        </mxCell>
        <mxCell id="0dVxlM_UZ9HLrQCLjUoz-10" value="" style="shape=flexArrow;endArrow=classic;html=1;rounded=0;width=16;endSize=5;fillColor=default;" edge="1" parent="0dVxlM_UZ9HLrQCLjUoz-1">
          <mxGeometry width="50" height="50" relative="1" as="geometry">
            <mxPoint x="490" y="229.65999999999997" as="sourcePoint" />
            <mxPoint x="520" y="229.65999999999997" as="targetPoint" />
          </mxGeometry>
        </mxCell>
        <mxCell id="0dVxlM_UZ9HLrQCLjUoz-11" value="Event Loop Thread" style="rounded=1;whiteSpace=wrap;html=1;fillColor=#f8cecc;strokeColor=#b85450;" vertex="1" parent="0dVxlM_UZ9HLrQCLjUoz-1">
          <mxGeometry x="180" y="120" width="120" height="30" as="geometry" />
        </mxCell>
        <mxCell id="0dVxlM_UZ9HLrQCLjUoz-12" value="Event Executor Thread" style="rounded=1;whiteSpace=wrap;html=1;fillColor=#e1d5e7;strokeColor=#9673a6;" vertex="1" parent="0dVxlM_UZ9HLrQCLjUoz-1">
          <mxGeometry x="320" y="120" width="150" height="30" as="geometry" />
        </mxCell>
        <mxCell id="0dVxlM_UZ9HLrQCLjUoz-13" value="" style="group" vertex="1" connectable="0" parent="0dVxlM_UZ9HLrQCLjUoz-1">
          <mxGeometry x="130" y="330" width="240" height="300" as="geometry" />
        </mxCell>
        <mxCell id="0dVxlM_UZ9HLrQCLjUoz-14" value="" style="rounded=0;whiteSpace=wrap;html=1;fontColor=default;" vertex="1" parent="0dVxlM_UZ9HLrQCLjUoz-13">
          <mxGeometry x="-10" width="240" height="200" as="geometry" />
        </mxCell>
        <mxCell id="0dVxlM_UZ9HLrQCLjUoz-15" value="" style="group" vertex="1" connectable="0" parent="0dVxlM_UZ9HLrQCLjUoz-13">
          <mxGeometry x="25" y="45" width="150" height="130" as="geometry" />
        </mxCell>
        <mxCell id="0dVxlM_UZ9HLrQCLjUoz-16" value="" style="curved=1;endArrow=classic;html=1;rounded=0;fontColor=default;fillColor=default;" edge="1" parent="0dVxlM_UZ9HLrQCLjUoz-15">
          <mxGeometry width="50" height="50" relative="1" as="geometry">
            <mxPoint y="50" as="sourcePoint" />
            <mxPoint x="90" y="50" as="targetPoint" />
            <Array as="points">
              <mxPoint />
              <mxPoint x="90" y="10" />
            </Array>
          </mxGeometry>
        </mxCell>
        <mxCell id="0dVxlM_UZ9HLrQCLjUoz-17" value="" style="curved=1;endArrow=classic;html=1;rounded=0;fontColor=default;fillColor=default;" edge="1" parent="0dVxlM_UZ9HLrQCLjUoz-15">
          <mxGeometry width="50" height="50" relative="1" as="geometry">
            <mxPoint x="90" y="60" as="sourcePoint" />
            <mxPoint y="60" as="targetPoint" />
            <Array as="points">
              <mxPoint x="110" y="100" />
              <mxPoint y="110" />
            </Array>
          </mxGeometry>
        </mxCell>
        <mxCell id="0dVxlM_UZ9HLrQCLjUoz-18" value="&lt;div&gt;EventLoop&lt;/div&gt;" style="text;html=1;strokeColor=none;fillColor=none;align=center;verticalAlign=middle;whiteSpace=wrap;rounded=0;fontColor=default;" vertex="1" parent="0dVxlM_UZ9HLrQCLjUoz-13">
          <mxGeometry x="-20" y="15" width="170" height="30" as="geometry" />
        </mxCell>
        <mxCell id="0dVxlM_UZ9HLrQCLjUoz-19" value="" style="shape=partialRectangle;whiteSpace=wrap;html=1;bottom=1;right=1;left=1;top=0;fillColor=none;routingCenterX=-0.5;fontColor=default;" vertex="1" parent="0dVxlM_UZ9HLrQCLjUoz-13">
          <mxGeometry x="140" y="20" width="60" height="160" as="geometry" />
        </mxCell>
        <mxCell id="0dVxlM_UZ9HLrQCLjUoz-20" value="Handler A" style="rounded=1;whiteSpace=wrap;html=1;fillColor=#f8cecc;strokeColor=#b85450;" vertex="1" parent="0dVxlM_UZ9HLrQCLjUoz-13">
          <mxGeometry x="145" y="130" width="50" height="40" as="geometry" />
        </mxCell>
        <mxCell id="HRaGNnTmv7JNBkMuzT7f-0" value="&lt;font style=&quot;font-size: 10px&quot;&gt;Task queue&lt;/font&gt;" style="text;html=1;strokeColor=none;fillColor=none;align=center;verticalAlign=middle;whiteSpace=wrap;rounded=0;fontColor=default;" vertex="1" parent="0dVxlM_UZ9HLrQCLjUoz-13">
          <mxGeometry x="127" y="-1" width="85" height="30" as="geometry" />
        </mxCell>
        <mxCell id="0dVxlM_UZ9HLrQCLjUoz-21" value="" style="group" vertex="1" connectable="0" parent="0dVxlM_UZ9HLrQCLjUoz-1">
          <mxGeometry x="420" y="330" width="240" height="300" as="geometry" />
        </mxCell>
        <mxCell id="0dVxlM_UZ9HLrQCLjUoz-22" value="" style="rounded=0;whiteSpace=wrap;html=1;fontColor=default;" vertex="1" parent="0dVxlM_UZ9HLrQCLjUoz-21">
          <mxGeometry x="-14" width="240" height="200" as="geometry" />
        </mxCell>
        <mxCell id="0dVxlM_UZ9HLrQCLjUoz-23" value="" style="group" vertex="1" connectable="0" parent="0dVxlM_UZ9HLrQCLjUoz-21">
          <mxGeometry x="21" y="45" width="150" height="130" as="geometry" />
        </mxCell>
        <mxCell id="0dVxlM_UZ9HLrQCLjUoz-24" value="" style="curved=1;endArrow=classic;html=1;rounded=0;fontColor=default;fillColor=default;" edge="1" parent="0dVxlM_UZ9HLrQCLjUoz-23">
          <mxGeometry width="50" height="50" relative="1" as="geometry">
            <mxPoint y="50" as="sourcePoint" />
            <mxPoint x="90" y="50" as="targetPoint" />
            <Array as="points">
              <mxPoint />
              <mxPoint x="90" y="10" />
            </Array>
          </mxGeometry>
        </mxCell>
        <mxCell id="0dVxlM_UZ9HLrQCLjUoz-25" value="" style="curved=1;endArrow=classic;html=1;rounded=0;fontColor=default;fillColor=default;" edge="1" parent="0dVxlM_UZ9HLrQCLjUoz-23">
          <mxGeometry width="50" height="50" relative="1" as="geometry">
            <mxPoint x="90" y="60" as="sourcePoint" />
            <mxPoint y="60" as="targetPoint" />
            <Array as="points">
              <mxPoint x="110" y="100" />
              <mxPoint y="110" />
            </Array>
          </mxGeometry>
        </mxCell>
        <mxCell id="0dVxlM_UZ9HLrQCLjUoz-26" value="EventExecutor" style="text;html=1;strokeColor=none;fillColor=none;align=center;verticalAlign=middle;whiteSpace=wrap;rounded=0;fontColor=default;" vertex="1" parent="0dVxlM_UZ9HLrQCLjUoz-21">
          <mxGeometry x="-20" y="15" width="170" height="30" as="geometry" />
        </mxCell>
        <mxCell id="0dVxlM_UZ9HLrQCLjUoz-27" value="" style="shape=partialRectangle;whiteSpace=wrap;html=1;bottom=1;right=1;left=1;top=0;fillColor=none;routingCenterX=-0.5;fontColor=default;" vertex="1" parent="0dVxlM_UZ9HLrQCLjUoz-21">
          <mxGeometry x="136" y="20" width="60" height="160" as="geometry" />
        </mxCell>
        <mxCell id="HRaGNnTmv7JNBkMuzT7f-2" value="&lt;font style=&quot;font-size: 10px&quot;&gt;Task queue&lt;/font&gt;" style="text;html=1;strokeColor=none;fillColor=none;align=center;verticalAlign=middle;whiteSpace=wrap;rounded=0;fontColor=default;" vertex="1" parent="0dVxlM_UZ9HLrQCLjUoz-21">
          <mxGeometry x="120" width="85" height="30" as="geometry" />
        </mxCell>
        <mxCell id="0dVxlM_UZ9HLrQCLjUoz-28" value="1" style="ellipse;whiteSpace=wrap;html=1;aspect=fixed;strokeWidth=2;fontFamily=Tahoma;spacingBottom=4;spacingRight=2;strokeColor=#6F0000;fillColor=#a20025;fontColor=#ffffff;" vertex="1" parent="0dVxlM_UZ9HLrQCLjUoz-1">
          <mxGeometry x="145" y="190" width="20" height="20" as="geometry" />
        </mxCell>
        <mxCell id="0dVxlM_UZ9HLrQCLjUoz-29" value="&lt;div&gt;2&lt;/div&gt;" style="ellipse;whiteSpace=wrap;html=1;aspect=fixed;strokeWidth=2;fontFamily=Tahoma;spacingBottom=4;spacingRight=2;strokeColor=#6F0000;fillColor=#a20025;fontColor=#ffffff;" vertex="1" parent="0dVxlM_UZ9HLrQCLjUoz-1">
          <mxGeometry x="330" y="180" width="20" height="20" as="geometry" />
        </mxCell>
        <mxCell id="0dVxlM_UZ9HLrQCLjUoz-30" value="3" style="ellipse;whiteSpace=wrap;html=1;aspect=fixed;strokeWidth=2;fontFamily=Tahoma;spacingBottom=4;spacingRight=2;strokeColor=#6F0000;fillColor=#a20025;fontColor=#ffffff;" vertex="1" parent="0dVxlM_UZ9HLrQCLjUoz-1">
          <mxGeometry x="490" y="180" width="20" height="20" as="geometry" />
        </mxCell>
        <mxCell id="0dVxlM_UZ9HLrQCLjUoz-31" value="1" style="ellipse;whiteSpace=wrap;html=1;aspect=fixed;strokeWidth=2;fontFamily=Tahoma;spacingBottom=4;spacingRight=2;strokeColor=#6F0000;fillColor=#a20025;fontColor=#ffffff;" vertex="1" parent="0dVxlM_UZ9HLrQCLjUoz-1">
          <mxGeometry x="100" y="300" width="20" height="20" as="geometry" />
        </mxCell>
        <mxCell id="0dVxlM_UZ9HLrQCLjUoz-32" value="" style="rounded=0;whiteSpace=wrap;html=1;fontColor=default;" vertex="1" parent="0dVxlM_UZ9HLrQCLjUoz-1">
          <mxGeometry x="120" y="580" width="240" height="200" as="geometry" />
        </mxCell>
        <mxCell id="0dVxlM_UZ9HLrQCLjUoz-33" value="" style="group" vertex="1" connectable="0" parent="0dVxlM_UZ9HLrQCLjUoz-1">
          <mxGeometry x="155" y="625" width="150" height="130" as="geometry" />
        </mxCell>
        <mxCell id="0dVxlM_UZ9HLrQCLjUoz-34" value="" style="curved=1;endArrow=classic;html=1;rounded=0;fontColor=default;fillColor=default;" edge="1" parent="0dVxlM_UZ9HLrQCLjUoz-33">
          <mxGeometry width="50" height="50" relative="1" as="geometry">
            <mxPoint y="50" as="sourcePoint" />
            <mxPoint x="90" y="50" as="targetPoint" />
            <Array as="points">
              <mxPoint />
              <mxPoint x="90" y="10" />
            </Array>
          </mxGeometry>
        </mxCell>
        <mxCell id="0dVxlM_UZ9HLrQCLjUoz-35" value="" style="curved=1;endArrow=classic;html=1;rounded=0;fontColor=default;fillColor=default;" edge="1" parent="0dVxlM_UZ9HLrQCLjUoz-33">
          <mxGeometry width="50" height="50" relative="1" as="geometry">
            <mxPoint x="90" y="60" as="sourcePoint" />
            <mxPoint y="60" as="targetPoint" />
            <Array as="points">
              <mxPoint x="110" y="100" />
              <mxPoint y="110" />
            </Array>
          </mxGeometry>
        </mxCell>
        <mxCell id="0dVxlM_UZ9HLrQCLjUoz-36" value="&lt;div&gt;EventLoop&lt;/div&gt;" style="text;html=1;strokeColor=none;fillColor=none;align=center;verticalAlign=middle;whiteSpace=wrap;rounded=0;fontColor=default;" vertex="1" parent="0dVxlM_UZ9HLrQCLjUoz-1">
          <mxGeometry x="110" y="595" width="170" height="30" as="geometry" />
        </mxCell>
        <mxCell id="0dVxlM_UZ9HLrQCLjUoz-37" value="" style="shape=partialRectangle;whiteSpace=wrap;html=1;bottom=1;right=1;left=1;top=0;fillColor=none;routingCenterX=-0.5;fontColor=default;" vertex="1" parent="0dVxlM_UZ9HLrQCLjUoz-1">
          <mxGeometry x="270" y="600" width="60" height="160" as="geometry" />
        </mxCell>
        <mxCell id="0dVxlM_UZ9HLrQCLjUoz-38" value="" style="rounded=0;whiteSpace=wrap;html=1;fontColor=default;" vertex="1" parent="0dVxlM_UZ9HLrQCLjUoz-1">
          <mxGeometry x="406" y="580" width="240" height="200" as="geometry" />
        </mxCell>
        <mxCell id="0dVxlM_UZ9HLrQCLjUoz-39" value="" style="group" vertex="1" connectable="0" parent="0dVxlM_UZ9HLrQCLjUoz-1">
          <mxGeometry x="441" y="625" width="150" height="130" as="geometry" />
        </mxCell>
        <mxCell id="0dVxlM_UZ9HLrQCLjUoz-40" value="" style="curved=1;endArrow=classic;html=1;rounded=0;fontColor=default;fillColor=default;" edge="1" parent="0dVxlM_UZ9HLrQCLjUoz-39">
          <mxGeometry width="50" height="50" relative="1" as="geometry">
            <mxPoint y="50" as="sourcePoint" />
            <mxPoint x="90" y="50" as="targetPoint" />
            <Array as="points">
              <mxPoint />
              <mxPoint x="90" y="10" />
            </Array>
          </mxGeometry>
        </mxCell>
        <mxCell id="0dVxlM_UZ9HLrQCLjUoz-41" value="" style="curved=1;endArrow=classic;html=1;rounded=0;fontColor=default;fillColor=default;" edge="1" parent="0dVxlM_UZ9HLrQCLjUoz-39">
          <mxGeometry width="50" height="50" relative="1" as="geometry">
            <mxPoint x="90" y="60" as="sourcePoint" />
            <mxPoint y="60" as="targetPoint" />
            <Array as="points">
              <mxPoint x="110" y="100" />
              <mxPoint y="110" />
            </Array>
          </mxGeometry>
        </mxCell>
        <mxCell id="0dVxlM_UZ9HLrQCLjUoz-42" value="EventExecutor" style="text;html=1;strokeColor=none;fillColor=none;align=center;verticalAlign=middle;whiteSpace=wrap;rounded=0;fontColor=default;" vertex="1" parent="0dVxlM_UZ9HLrQCLjUoz-1">
          <mxGeometry x="400" y="595" width="170" height="30" as="geometry" />
        </mxCell>
        <mxCell id="0dVxlM_UZ9HLrQCLjUoz-43" value="" style="shape=partialRectangle;whiteSpace=wrap;html=1;bottom=1;right=1;left=1;top=0;fillColor=none;routingCenterX=-0.5;fontColor=default;" vertex="1" parent="0dVxlM_UZ9HLrQCLjUoz-1">
          <mxGeometry x="556" y="600" width="60" height="160" as="geometry" />
        </mxCell>
        <mxCell id="0dVxlM_UZ9HLrQCLjUoz-44" value="2" style="ellipse;whiteSpace=wrap;html=1;aspect=fixed;strokeWidth=2;fontFamily=Tahoma;spacingBottom=4;spacingRight=2;strokeColor=#6F0000;fillColor=#a20025;fontColor=#ffffff;" vertex="1" parent="0dVxlM_UZ9HLrQCLjUoz-1">
          <mxGeometry x="100" y="550" width="20" height="20" as="geometry" />
        </mxCell>
        <mxCell id="0dVxlM_UZ9HLrQCLjUoz-45" value="" style="rounded=0;whiteSpace=wrap;html=1;fontColor=default;" vertex="1" parent="0dVxlM_UZ9HLrQCLjUoz-1">
          <mxGeometry x="120" y="830" width="240" height="200" as="geometry" />
        </mxCell>
        <mxCell id="0dVxlM_UZ9HLrQCLjUoz-46" value="" style="group" vertex="1" connectable="0" parent="0dVxlM_UZ9HLrQCLjUoz-1">
          <mxGeometry x="155" y="875" width="150" height="130" as="geometry" />
        </mxCell>
        <mxCell id="0dVxlM_UZ9HLrQCLjUoz-47" value="" style="curved=1;endArrow=classic;html=1;rounded=0;fontColor=default;fillColor=default;" edge="1" parent="0dVxlM_UZ9HLrQCLjUoz-46">
          <mxGeometry width="50" height="50" relative="1" as="geometry">
            <mxPoint y="50" as="sourcePoint" />
            <mxPoint x="90" y="50" as="targetPoint" />
            <Array as="points">
              <mxPoint />
              <mxPoint x="90" y="10" />
            </Array>
          </mxGeometry>
        </mxCell>
        <mxCell id="0dVxlM_UZ9HLrQCLjUoz-48" value="" style="curved=1;endArrow=classic;html=1;rounded=0;fontColor=default;fillColor=default;" edge="1" parent="0dVxlM_UZ9HLrQCLjUoz-46">
          <mxGeometry width="50" height="50" relative="1" as="geometry">
            <mxPoint x="90" y="60" as="sourcePoint" />
            <mxPoint y="60" as="targetPoint" />
            <Array as="points">
              <mxPoint x="110" y="100" />
              <mxPoint y="110" />
            </Array>
          </mxGeometry>
        </mxCell>
        <mxCell id="0dVxlM_UZ9HLrQCLjUoz-49" value="&lt;div&gt;EventLoop&lt;/div&gt;" style="text;html=1;strokeColor=none;fillColor=none;align=center;verticalAlign=middle;whiteSpace=wrap;rounded=0;fontColor=default;" vertex="1" parent="0dVxlM_UZ9HLrQCLjUoz-1">
          <mxGeometry x="110" y="845" width="170" height="30" as="geometry" />
        </mxCell>
        <mxCell id="0dVxlM_UZ9HLrQCLjUoz-50" value="" style="shape=partialRectangle;whiteSpace=wrap;html=1;bottom=1;right=1;left=1;top=0;fillColor=none;routingCenterX=-0.5;fontColor=default;" vertex="1" parent="0dVxlM_UZ9HLrQCLjUoz-1">
          <mxGeometry x="270" y="850" width="60" height="160" as="geometry" />
        </mxCell>
        <mxCell id="0dVxlM_UZ9HLrQCLjUoz-51" value="" style="rounded=0;whiteSpace=wrap;html=1;fontColor=default;" vertex="1" parent="0dVxlM_UZ9HLrQCLjUoz-1">
          <mxGeometry x="406" y="830" width="240" height="200" as="geometry" />
        </mxCell>
        <mxCell id="0dVxlM_UZ9HLrQCLjUoz-52" value="" style="group" vertex="1" connectable="0" parent="0dVxlM_UZ9HLrQCLjUoz-1">
          <mxGeometry x="441" y="875" width="150" height="130" as="geometry" />
        </mxCell>
        <mxCell id="0dVxlM_UZ9HLrQCLjUoz-53" value="" style="curved=1;endArrow=classic;html=1;rounded=0;fontColor=default;fillColor=default;" edge="1" parent="0dVxlM_UZ9HLrQCLjUoz-52">
          <mxGeometry width="50" height="50" relative="1" as="geometry">
            <mxPoint y="50" as="sourcePoint" />
            <mxPoint x="90" y="50" as="targetPoint" />
            <Array as="points">
              <mxPoint />
              <mxPoint x="90" y="10" />
            </Array>
          </mxGeometry>
        </mxCell>
        <mxCell id="0dVxlM_UZ9HLrQCLjUoz-54" value="" style="curved=1;endArrow=classic;html=1;rounded=0;fontColor=default;fillColor=default;" edge="1" parent="0dVxlM_UZ9HLrQCLjUoz-52">
          <mxGeometry width="50" height="50" relative="1" as="geometry">
            <mxPoint x="90" y="60" as="sourcePoint" />
            <mxPoint y="60" as="targetPoint" />
            <Array as="points">
              <mxPoint x="110" y="100" />
              <mxPoint y="110" />
            </Array>
          </mxGeometry>
        </mxCell>
        <mxCell id="0dVxlM_UZ9HLrQCLjUoz-55" value="EventExecutor" style="text;html=1;strokeColor=none;fillColor=none;align=center;verticalAlign=middle;whiteSpace=wrap;rounded=0;fontColor=default;" vertex="1" parent="0dVxlM_UZ9HLrQCLjUoz-1">
          <mxGeometry x="400" y="845" width="170" height="30" as="geometry" />
        </mxCell>
        <mxCell id="0dVxlM_UZ9HLrQCLjUoz-56" value="" style="shape=partialRectangle;whiteSpace=wrap;html=1;bottom=1;right=1;left=1;top=0;fillColor=none;routingCenterX=-0.5;fontColor=default;" vertex="1" parent="0dVxlM_UZ9HLrQCLjUoz-1">
          <mxGeometry x="556" y="850" width="60" height="160" as="geometry" />
        </mxCell>
        <mxCell id="0dVxlM_UZ9HLrQCLjUoz-57" value="3" style="ellipse;whiteSpace=wrap;html=1;aspect=fixed;strokeWidth=2;fontFamily=Tahoma;spacingBottom=4;spacingRight=2;strokeColor=#6F0000;fillColor=#a20025;fontColor=#ffffff;" vertex="1" parent="0dVxlM_UZ9HLrQCLjUoz-1">
          <mxGeometry x="100" y="800" width="20" height="20" as="geometry" />
        </mxCell>
        <mxCell id="0dVxlM_UZ9HLrQCLjUoz-58" value="&lt;div&gt;Handler B&lt;/div&gt;" style="rounded=1;whiteSpace=wrap;html=1;fillColor=#f8cecc;strokeColor=#b85450;" vertex="1" parent="0dVxlM_UZ9HLrQCLjUoz-1">
          <mxGeometry x="275" y="715" width="50" height="40" as="geometry" />
        </mxCell>
        <mxCell id="0dVxlM_UZ9HLrQCLjUoz-59" value="&lt;div&gt;Handler C&lt;/div&gt;" style="rounded=1;whiteSpace=wrap;html=1;fillColor=#f8cecc;strokeColor=#b85450;" vertex="1" parent="0dVxlM_UZ9HLrQCLjUoz-1">
          <mxGeometry x="275" y="960" width="50" height="45" as="geometry" />
        </mxCell>
        <mxCell id="HRaGNnTmv7JNBkMuzT7f-3" value="&lt;font style=&quot;font-size: 10px&quot;&gt;Task queue&lt;/font&gt;" style="text;html=1;strokeColor=none;fillColor=none;align=center;verticalAlign=middle;whiteSpace=wrap;rounded=0;fontColor=default;" vertex="1" parent="0dVxlM_UZ9HLrQCLjUoz-1">
          <mxGeometry x="543.5" y="585" width="85" height="30" as="geometry" />
        </mxCell>
        <mxCell id="HRaGNnTmv7JNBkMuzT7f-4" value="&lt;font style=&quot;font-size: 10px&quot;&gt;Task queue&lt;/font&gt;" style="text;html=1;strokeColor=none;fillColor=none;align=center;verticalAlign=middle;whiteSpace=wrap;rounded=0;fontColor=default;" vertex="1" parent="0dVxlM_UZ9HLrQCLjUoz-1">
          <mxGeometry x="257.5" y="580" width="85" height="30" as="geometry" />
        </mxCell>
        <mxCell id="HRaGNnTmv7JNBkMuzT7f-5" value="&lt;font style=&quot;font-size: 10px&quot;&gt;Task queue&lt;/font&gt;" style="text;html=1;strokeColor=none;fillColor=none;align=center;verticalAlign=middle;whiteSpace=wrap;rounded=0;fontColor=default;" vertex="1" parent="0dVxlM_UZ9HLrQCLjUoz-1">
          <mxGeometry x="257.5" y="830" width="85" height="30" as="geometry" />
        </mxCell>
        <mxCell id="HRaGNnTmv7JNBkMuzT7f-6" value="&lt;font style=&quot;font-size: 10px&quot;&gt;Task queue&lt;/font&gt;" style="text;html=1;strokeColor=none;fillColor=none;align=center;verticalAlign=middle;whiteSpace=wrap;rounded=0;fontColor=default;" vertex="1" parent="0dVxlM_UZ9HLrQCLjUoz-1">
          <mxGeometry x="543.5" y="830" width="85" height="30" as="geometry" />
        </mxCell>
      </root>
    </mxGraphModel>
  </diagram>
  <diagram id="U0kUCpqetCYg3u0gUaNk" name="RunOtherThreadEventLoop">
    <mxGraphModel dx="896" dy="471" grid="1" gridSize="10" guides="1" tooltips="1" connect="1" arrows="1" fold="1" page="1" pageScale="1" pageWidth="827" pageHeight="1169" math="0" shadow="0">
      <root>
        <mxCell id="pgob9W8pVidomaQH4PLx-0" />
        <mxCell id="pgob9W8pVidomaQH4PLx-1" parent="pgob9W8pVidomaQH4PLx-0" />
        <mxCell id="LUwXPG8r_DOwDY3dfCEj-0" value="" style="rounded=0;whiteSpace=wrap;html=1;" vertex="1" parent="pgob9W8pVidomaQH4PLx-1">
          <mxGeometry x="170" y="165" width="500" height="130" as="geometry" />
        </mxCell>
        <mxCell id="LUwXPG8r_DOwDY3dfCEj-1" value="Channel Pipeline" style="text;html=1;strokeColor=none;fillColor=none;align=center;verticalAlign=middle;whiteSpace=wrap;rounded=0;" vertex="1" parent="pgob9W8pVidomaQH4PLx-1">
          <mxGeometry x="170" y="165" width="120" height="30" as="geometry" />
        </mxCell>
        <mxCell id="LUwXPG8r_DOwDY3dfCEj-2" value="bytes in" style="shape=flexArrow;endArrow=classic;html=1;rounded=0;width=30;endSize=6.5;fillColor=default;" edge="1" parent="pgob9W8pVidomaQH4PLx-1">
          <mxGeometry width="50" height="50" relative="1" as="geometry">
            <mxPoint x="100.00000000000011" y="230" as="sourcePoint" />
            <mxPoint x="190" y="230" as="targetPoint" />
          </mxGeometry>
        </mxCell>
        <mxCell id="LUwXPG8r_DOwDY3dfCEj-3" value="&lt;div&gt;Socket&lt;/div&gt;" style="rounded=1;whiteSpace=wrap;html=1;" vertex="1" parent="pgob9W8pVidomaQH4PLx-1">
          <mxGeometry x="30" y="200" width="60" height="60" as="geometry" />
        </mxCell>
        <mxCell id="LUwXPG8r_DOwDY3dfCEj-4" value="Handler A" style="rounded=1;whiteSpace=wrap;html=1;fillColor=#f8cecc;strokeColor=#b85450;" vertex="1" parent="pgob9W8pVidomaQH4PLx-1">
          <mxGeometry x="200" y="200" width="120" height="60" as="geometry" />
        </mxCell>
        <mxCell id="LUwXPG8r_DOwDY3dfCEj-5" value="&lt;div&gt;Handler B&lt;/div&gt;" style="rounded=1;whiteSpace=wrap;html=1;fillColor=#e1d5e7;strokeColor=#9673a6;" vertex="1" parent="pgob9W8pVidomaQH4PLx-1">
          <mxGeometry x="360" y="200" width="120" height="60" as="geometry" />
        </mxCell>
        <mxCell id="LUwXPG8r_DOwDY3dfCEj-6" value="&lt;div&gt;Handler C&lt;/div&gt;" style="rounded=1;whiteSpace=wrap;html=1;fillColor=#f8cecc;strokeColor=#b85450;" vertex="1" parent="pgob9W8pVidomaQH4PLx-1">
          <mxGeometry x="530" y="200" width="120" height="60" as="geometry" />
        </mxCell>
        <mxCell id="LUwXPG8r_DOwDY3dfCEj-7" value="" style="shape=flexArrow;endArrow=classic;html=1;rounded=0;width=16;endSize=5;fillColor=default;" edge="1" parent="pgob9W8pVidomaQH4PLx-1">
          <mxGeometry width="50" height="50" relative="1" as="geometry">
            <mxPoint x="324" y="229.65999999999997" as="sourcePoint" />
            <mxPoint x="354" y="229.65999999999997" as="targetPoint" />
          </mxGeometry>
        </mxCell>
        <mxCell id="LUwXPG8r_DOwDY3dfCEj-8" value="" style="shape=flexArrow;endArrow=classic;html=1;rounded=0;width=16;endSize=5;fillColor=default;" edge="1" parent="pgob9W8pVidomaQH4PLx-1">
          <mxGeometry width="50" height="50" relative="1" as="geometry">
            <mxPoint x="490" y="229.65999999999997" as="sourcePoint" />
            <mxPoint x="520" y="229.65999999999997" as="targetPoint" />
          </mxGeometry>
        </mxCell>
        <mxCell id="LUwXPG8r_DOwDY3dfCEj-9" value="Event Loop Thread" style="rounded=1;whiteSpace=wrap;html=1;fillColor=#f8cecc;strokeColor=#b85450;" vertex="1" parent="pgob9W8pVidomaQH4PLx-1">
          <mxGeometry x="180" y="120" width="120" height="30" as="geometry" />
        </mxCell>
        <mxCell id="LUwXPG8r_DOwDY3dfCEj-10" value="Event Executor Thread" style="rounded=1;whiteSpace=wrap;html=1;fillColor=#e1d5e7;strokeColor=#9673a6;" vertex="1" parent="pgob9W8pVidomaQH4PLx-1">
          <mxGeometry x="320" y="120" width="150" height="30" as="geometry" />
        </mxCell>
        <mxCell id="LUwXPG8r_DOwDY3dfCEj-23" value="" style="group" vertex="1" connectable="0" parent="pgob9W8pVidomaQH4PLx-1">
          <mxGeometry x="130" y="330" width="240" height="300" as="geometry" />
        </mxCell>
        <mxCell id="LUwXPG8r_DOwDY3dfCEj-19" value="" style="rounded=0;whiteSpace=wrap;html=1;fontColor=default;" vertex="1" parent="LUwXPG8r_DOwDY3dfCEj-23">
          <mxGeometry x="-10" width="240" height="200" as="geometry" />
        </mxCell>
        <mxCell id="LUwXPG8r_DOwDY3dfCEj-17" value="" style="group" vertex="1" connectable="0" parent="LUwXPG8r_DOwDY3dfCEj-23">
          <mxGeometry x="25" y="45" width="150" height="130" as="geometry" />
        </mxCell>
        <mxCell id="LUwXPG8r_DOwDY3dfCEj-12" value="" style="curved=1;endArrow=classic;html=1;rounded=0;fontColor=default;fillColor=default;" edge="1" parent="LUwXPG8r_DOwDY3dfCEj-17">
          <mxGeometry width="50" height="50" relative="1" as="geometry">
            <mxPoint y="50" as="sourcePoint" />
            <mxPoint x="90" y="50" as="targetPoint" />
            <Array as="points">
              <mxPoint />
              <mxPoint x="90" y="10" />
            </Array>
          </mxGeometry>
        </mxCell>
        <mxCell id="LUwXPG8r_DOwDY3dfCEj-16" value="" style="curved=1;endArrow=classic;html=1;rounded=0;fontColor=default;fillColor=default;" edge="1" parent="LUwXPG8r_DOwDY3dfCEj-17">
          <mxGeometry width="50" height="50" relative="1" as="geometry">
            <mxPoint x="90" y="60" as="sourcePoint" />
            <mxPoint y="60" as="targetPoint" />
            <Array as="points">
              <mxPoint x="110" y="100" />
              <mxPoint y="110" />
            </Array>
          </mxGeometry>
        </mxCell>
        <mxCell id="LUwXPG8r_DOwDY3dfCEj-21" value="&lt;div&gt;EventLoop&lt;/div&gt;" style="text;html=1;strokeColor=none;fillColor=none;align=center;verticalAlign=middle;whiteSpace=wrap;rounded=0;fontColor=default;" vertex="1" parent="LUwXPG8r_DOwDY3dfCEj-23">
          <mxGeometry x="-20" y="15" width="170" height="30" as="geometry" />
        </mxCell>
        <mxCell id="LUwXPG8r_DOwDY3dfCEj-22" value="" style="shape=partialRectangle;whiteSpace=wrap;html=1;bottom=1;right=1;left=1;top=0;fillColor=none;routingCenterX=-0.5;fontColor=default;" vertex="1" parent="LUwXPG8r_DOwDY3dfCEj-23">
          <mxGeometry x="140" y="20" width="60" height="160" as="geometry" />
        </mxCell>
        <mxCell id="LUwXPG8r_DOwDY3dfCEj-35" value="Handler A" style="rounded=1;whiteSpace=wrap;html=1;fillColor=#f8cecc;strokeColor=#b85450;" vertex="1" parent="LUwXPG8r_DOwDY3dfCEj-23">
          <mxGeometry x="145" y="130" width="50" height="40" as="geometry" />
        </mxCell>
        <mxCell id="_yWuy7aNl2lMbMd4OHXZ-5" value="&lt;font style=&quot;font-size: 10px&quot;&gt;Task queue&lt;/font&gt;" style="text;html=1;strokeColor=none;fillColor=none;align=center;verticalAlign=middle;whiteSpace=wrap;rounded=0;fontColor=default;" vertex="1" parent="LUwXPG8r_DOwDY3dfCEj-23">
          <mxGeometry x="127.5" width="85" height="30" as="geometry" />
        </mxCell>
        <mxCell id="LUwXPG8r_DOwDY3dfCEj-24" value="" style="group" vertex="1" connectable="0" parent="pgob9W8pVidomaQH4PLx-1">
          <mxGeometry x="420" y="330" width="240" height="300" as="geometry" />
        </mxCell>
        <mxCell id="LUwXPG8r_DOwDY3dfCEj-25" value="" style="rounded=0;whiteSpace=wrap;html=1;fontColor=default;" vertex="1" parent="LUwXPG8r_DOwDY3dfCEj-24">
          <mxGeometry x="-14" width="240" height="200" as="geometry" />
        </mxCell>
        <mxCell id="LUwXPG8r_DOwDY3dfCEj-26" value="" style="group" vertex="1" connectable="0" parent="LUwXPG8r_DOwDY3dfCEj-24">
          <mxGeometry x="21" y="45" width="150" height="130" as="geometry" />
        </mxCell>
        <mxCell id="LUwXPG8r_DOwDY3dfCEj-27" value="" style="curved=1;endArrow=classic;html=1;rounded=0;fontColor=default;fillColor=default;" edge="1" parent="LUwXPG8r_DOwDY3dfCEj-26">
          <mxGeometry width="50" height="50" relative="1" as="geometry">
            <mxPoint y="50" as="sourcePoint" />
            <mxPoint x="90" y="50" as="targetPoint" />
            <Array as="points">
              <mxPoint />
              <mxPoint x="90" y="10" />
            </Array>
          </mxGeometry>
        </mxCell>
        <mxCell id="LUwXPG8r_DOwDY3dfCEj-28" value="" style="curved=1;endArrow=classic;html=1;rounded=0;fontColor=default;fillColor=default;" edge="1" parent="LUwXPG8r_DOwDY3dfCEj-26">
          <mxGeometry width="50" height="50" relative="1" as="geometry">
            <mxPoint x="90" y="60" as="sourcePoint" />
            <mxPoint y="60" as="targetPoint" />
            <Array as="points">
              <mxPoint x="110" y="100" />
              <mxPoint y="110" />
            </Array>
          </mxGeometry>
        </mxCell>
        <mxCell id="LUwXPG8r_DOwDY3dfCEj-29" value="EventExecutor" style="text;html=1;strokeColor=none;fillColor=none;align=center;verticalAlign=middle;whiteSpace=wrap;rounded=0;fontColor=default;" vertex="1" parent="LUwXPG8r_DOwDY3dfCEj-24">
          <mxGeometry x="-20" y="15" width="170" height="30" as="geometry" />
        </mxCell>
        <mxCell id="LUwXPG8r_DOwDY3dfCEj-30" value="" style="shape=partialRectangle;whiteSpace=wrap;html=1;bottom=1;right=1;left=1;top=0;fillColor=none;routingCenterX=-0.5;fontColor=default;" vertex="1" parent="LUwXPG8r_DOwDY3dfCEj-24">
          <mxGeometry x="136" y="20" width="60" height="160" as="geometry" />
        </mxCell>
        <mxCell id="_yWuy7aNl2lMbMd4OHXZ-4" value="&lt;font style=&quot;font-size: 10px&quot;&gt;Task queue&lt;/font&gt;" style="text;html=1;strokeColor=none;fillColor=none;align=center;verticalAlign=middle;whiteSpace=wrap;rounded=0;fontColor=default;" vertex="1" parent="LUwXPG8r_DOwDY3dfCEj-24">
          <mxGeometry x="120" width="85" height="30" as="geometry" />
        </mxCell>
        <mxCell id="LUwXPG8r_DOwDY3dfCEj-31" value="1" style="ellipse;whiteSpace=wrap;html=1;aspect=fixed;strokeWidth=2;fontFamily=Tahoma;spacingBottom=4;spacingRight=2;strokeColor=#6F0000;fillColor=#a20025;fontColor=#ffffff;" vertex="1" parent="pgob9W8pVidomaQH4PLx-1">
          <mxGeometry x="145" y="190" width="20" height="20" as="geometry" />
        </mxCell>
        <mxCell id="LUwXPG8r_DOwDY3dfCEj-32" value="&lt;div&gt;2&lt;/div&gt;" style="ellipse;whiteSpace=wrap;html=1;aspect=fixed;strokeWidth=2;fontFamily=Tahoma;spacingBottom=4;spacingRight=2;strokeColor=#6F0000;fillColor=#a20025;fontColor=#ffffff;" vertex="1" parent="pgob9W8pVidomaQH4PLx-1">
          <mxGeometry x="330" y="180" width="20" height="20" as="geometry" />
        </mxCell>
        <mxCell id="LUwXPG8r_DOwDY3dfCEj-33" value="3" style="ellipse;whiteSpace=wrap;html=1;aspect=fixed;strokeWidth=2;fontFamily=Tahoma;spacingBottom=4;spacingRight=2;strokeColor=#6F0000;fillColor=#a20025;fontColor=#ffffff;" vertex="1" parent="pgob9W8pVidomaQH4PLx-1">
          <mxGeometry x="490" y="180" width="20" height="20" as="geometry" />
        </mxCell>
        <mxCell id="LUwXPG8r_DOwDY3dfCEj-34" value="1" style="ellipse;whiteSpace=wrap;html=1;aspect=fixed;strokeWidth=2;fontFamily=Tahoma;spacingBottom=4;spacingRight=2;strokeColor=#6F0000;fillColor=#a20025;fontColor=#ffffff;" vertex="1" parent="pgob9W8pVidomaQH4PLx-1">
          <mxGeometry x="100" y="300" width="20" height="20" as="geometry" />
        </mxCell>
        <mxCell id="LUwXPG8r_DOwDY3dfCEj-50" value="" style="rounded=0;whiteSpace=wrap;html=1;fontColor=default;" vertex="1" parent="pgob9W8pVidomaQH4PLx-1">
          <mxGeometry x="120" y="580" width="240" height="200" as="geometry" />
        </mxCell>
        <mxCell id="LUwXPG8r_DOwDY3dfCEj-51" value="" style="group" vertex="1" connectable="0" parent="pgob9W8pVidomaQH4PLx-1">
          <mxGeometry x="155" y="625" width="150" height="130" as="geometry" />
        </mxCell>
        <mxCell id="LUwXPG8r_DOwDY3dfCEj-52" value="" style="curved=1;endArrow=classic;html=1;rounded=0;fontColor=default;fillColor=default;" edge="1" parent="LUwXPG8r_DOwDY3dfCEj-51">
          <mxGeometry width="50" height="50" relative="1" as="geometry">
            <mxPoint y="50" as="sourcePoint" />
            <mxPoint x="90" y="50" as="targetPoint" />
            <Array as="points">
              <mxPoint />
              <mxPoint x="90" y="10" />
            </Array>
          </mxGeometry>
        </mxCell>
        <mxCell id="LUwXPG8r_DOwDY3dfCEj-53" value="" style="curved=1;endArrow=classic;html=1;rounded=0;fontColor=default;fillColor=default;" edge="1" parent="LUwXPG8r_DOwDY3dfCEj-51">
          <mxGeometry width="50" height="50" relative="1" as="geometry">
            <mxPoint x="90" y="60" as="sourcePoint" />
            <mxPoint y="60" as="targetPoint" />
            <Array as="points">
              <mxPoint x="110" y="100" />
              <mxPoint y="110" />
            </Array>
          </mxGeometry>
        </mxCell>
        <mxCell id="LUwXPG8r_DOwDY3dfCEj-54" value="&lt;div&gt;EventLoop&lt;/div&gt;" style="text;html=1;strokeColor=none;fillColor=none;align=center;verticalAlign=middle;whiteSpace=wrap;rounded=0;fontColor=default;" vertex="1" parent="pgob9W8pVidomaQH4PLx-1">
          <mxGeometry x="110" y="595" width="170" height="30" as="geometry" />
        </mxCell>
        <mxCell id="LUwXPG8r_DOwDY3dfCEj-55" value="" style="shape=partialRectangle;whiteSpace=wrap;html=1;bottom=1;right=1;left=1;top=0;fillColor=none;routingCenterX=-0.5;fontColor=default;" vertex="1" parent="pgob9W8pVidomaQH4PLx-1">
          <mxGeometry x="270" y="600" width="60" height="160" as="geometry" />
        </mxCell>
        <mxCell id="LUwXPG8r_DOwDY3dfCEj-57" value="" style="rounded=0;whiteSpace=wrap;html=1;fontColor=default;" vertex="1" parent="pgob9W8pVidomaQH4PLx-1">
          <mxGeometry x="406" y="580" width="240" height="200" as="geometry" />
        </mxCell>
        <mxCell id="LUwXPG8r_DOwDY3dfCEj-58" value="" style="group" vertex="1" connectable="0" parent="pgob9W8pVidomaQH4PLx-1">
          <mxGeometry x="441" y="625" width="150" height="130" as="geometry" />
        </mxCell>
        <mxCell id="LUwXPG8r_DOwDY3dfCEj-59" value="" style="curved=1;endArrow=classic;html=1;rounded=0;fontColor=default;fillColor=default;" edge="1" parent="LUwXPG8r_DOwDY3dfCEj-58">
          <mxGeometry width="50" height="50" relative="1" as="geometry">
            <mxPoint y="50" as="sourcePoint" />
            <mxPoint x="90" y="50" as="targetPoint" />
            <Array as="points">
              <mxPoint />
              <mxPoint x="90" y="10" />
            </Array>
          </mxGeometry>
        </mxCell>
        <mxCell id="LUwXPG8r_DOwDY3dfCEj-60" value="" style="curved=1;endArrow=classic;html=1;rounded=0;fontColor=default;fillColor=default;" edge="1" parent="LUwXPG8r_DOwDY3dfCEj-58">
          <mxGeometry width="50" height="50" relative="1" as="geometry">
            <mxPoint x="90" y="60" as="sourcePoint" />
            <mxPoint y="60" as="targetPoint" />
            <Array as="points">
              <mxPoint x="110" y="100" />
              <mxPoint y="110" />
            </Array>
          </mxGeometry>
        </mxCell>
        <mxCell id="LUwXPG8r_DOwDY3dfCEj-61" value="EventExecutor" style="text;html=1;strokeColor=none;fillColor=none;align=center;verticalAlign=middle;whiteSpace=wrap;rounded=0;fontColor=default;" vertex="1" parent="pgob9W8pVidomaQH4PLx-1">
          <mxGeometry x="400" y="595" width="170" height="30" as="geometry" />
        </mxCell>
        <mxCell id="LUwXPG8r_DOwDY3dfCEj-62" value="" style="shape=partialRectangle;whiteSpace=wrap;html=1;bottom=1;right=1;left=1;top=0;fillColor=none;routingCenterX=-0.5;fontColor=default;" vertex="1" parent="pgob9W8pVidomaQH4PLx-1">
          <mxGeometry x="556" y="600" width="60" height="160" as="geometry" />
        </mxCell>
        <mxCell id="LUwXPG8r_DOwDY3dfCEj-63" value="2" style="ellipse;whiteSpace=wrap;html=1;aspect=fixed;strokeWidth=2;fontFamily=Tahoma;spacingBottom=4;spacingRight=2;strokeColor=#6F0000;fillColor=#a20025;fontColor=#ffffff;" vertex="1" parent="pgob9W8pVidomaQH4PLx-1">
          <mxGeometry x="100" y="550" width="20" height="20" as="geometry" />
        </mxCell>
        <mxCell id="LUwXPG8r_DOwDY3dfCEj-64" value="" style="rounded=0;whiteSpace=wrap;html=1;fontColor=default;" vertex="1" parent="pgob9W8pVidomaQH4PLx-1">
          <mxGeometry x="120" y="830" width="240" height="200" as="geometry" />
        </mxCell>
        <mxCell id="LUwXPG8r_DOwDY3dfCEj-65" value="" style="group" vertex="1" connectable="0" parent="pgob9W8pVidomaQH4PLx-1">
          <mxGeometry x="155" y="875" width="150" height="130" as="geometry" />
        </mxCell>
        <mxCell id="LUwXPG8r_DOwDY3dfCEj-66" value="" style="curved=1;endArrow=classic;html=1;rounded=0;fontColor=default;fillColor=default;" edge="1" parent="LUwXPG8r_DOwDY3dfCEj-65">
          <mxGeometry width="50" height="50" relative="1" as="geometry">
            <mxPoint y="50" as="sourcePoint" />
            <mxPoint x="90" y="50" as="targetPoint" />
            <Array as="points">
              <mxPoint />
              <mxPoint x="90" y="10" />
            </Array>
          </mxGeometry>
        </mxCell>
        <mxCell id="LUwXPG8r_DOwDY3dfCEj-67" value="" style="curved=1;endArrow=classic;html=1;rounded=0;fontColor=default;fillColor=default;" edge="1" parent="LUwXPG8r_DOwDY3dfCEj-65">
          <mxGeometry width="50" height="50" relative="1" as="geometry">
            <mxPoint x="90" y="60" as="sourcePoint" />
            <mxPoint y="60" as="targetPoint" />
            <Array as="points">
              <mxPoint x="110" y="100" />
              <mxPoint y="110" />
            </Array>
          </mxGeometry>
        </mxCell>
        <mxCell id="LUwXPG8r_DOwDY3dfCEj-68" value="&lt;div&gt;EventLoop&lt;/div&gt;" style="text;html=1;strokeColor=none;fillColor=none;align=center;verticalAlign=middle;whiteSpace=wrap;rounded=0;fontColor=default;" vertex="1" parent="pgob9W8pVidomaQH4PLx-1">
          <mxGeometry x="110" y="845" width="170" height="30" as="geometry" />
        </mxCell>
        <mxCell id="LUwXPG8r_DOwDY3dfCEj-69" value="" style="shape=partialRectangle;whiteSpace=wrap;html=1;bottom=1;right=1;left=1;top=0;fillColor=none;routingCenterX=-0.5;fontColor=default;" vertex="1" parent="pgob9W8pVidomaQH4PLx-1">
          <mxGeometry x="270" y="850" width="60" height="160" as="geometry" />
        </mxCell>
        <mxCell id="LUwXPG8r_DOwDY3dfCEj-71" value="" style="rounded=0;whiteSpace=wrap;html=1;fontColor=default;" vertex="1" parent="pgob9W8pVidomaQH4PLx-1">
          <mxGeometry x="406" y="830" width="240" height="200" as="geometry" />
        </mxCell>
        <mxCell id="LUwXPG8r_DOwDY3dfCEj-72" value="" style="group" vertex="1" connectable="0" parent="pgob9W8pVidomaQH4PLx-1">
          <mxGeometry x="441" y="875" width="150" height="130" as="geometry" />
        </mxCell>
        <mxCell id="LUwXPG8r_DOwDY3dfCEj-73" value="" style="curved=1;endArrow=classic;html=1;rounded=0;fontColor=default;fillColor=default;" edge="1" parent="LUwXPG8r_DOwDY3dfCEj-72">
          <mxGeometry width="50" height="50" relative="1" as="geometry">
            <mxPoint y="50" as="sourcePoint" />
            <mxPoint x="90" y="50" as="targetPoint" />
            <Array as="points">
              <mxPoint />
              <mxPoint x="90" y="10" />
            </Array>
          </mxGeometry>
        </mxCell>
        <mxCell id="LUwXPG8r_DOwDY3dfCEj-74" value="" style="curved=1;endArrow=classic;html=1;rounded=0;fontColor=default;fillColor=default;" edge="1" parent="LUwXPG8r_DOwDY3dfCEj-72">
          <mxGeometry width="50" height="50" relative="1" as="geometry">
            <mxPoint x="90" y="60" as="sourcePoint" />
            <mxPoint y="60" as="targetPoint" />
            <Array as="points">
              <mxPoint x="110" y="100" />
              <mxPoint y="110" />
            </Array>
          </mxGeometry>
        </mxCell>
        <mxCell id="LUwXPG8r_DOwDY3dfCEj-75" value="EventExecutor" style="text;html=1;strokeColor=none;fillColor=none;align=center;verticalAlign=middle;whiteSpace=wrap;rounded=0;fontColor=default;" vertex="1" parent="pgob9W8pVidomaQH4PLx-1">
          <mxGeometry x="400" y="845" width="170" height="30" as="geometry" />
        </mxCell>
        <mxCell id="LUwXPG8r_DOwDY3dfCEj-76" value="" style="shape=partialRectangle;whiteSpace=wrap;html=1;bottom=1;right=1;left=1;top=0;fillColor=none;routingCenterX=-0.5;fontColor=default;" vertex="1" parent="pgob9W8pVidomaQH4PLx-1">
          <mxGeometry x="556" y="850" width="60" height="160" as="geometry" />
        </mxCell>
        <mxCell id="LUwXPG8r_DOwDY3dfCEj-77" value="3" style="ellipse;whiteSpace=wrap;html=1;aspect=fixed;strokeWidth=2;fontFamily=Tahoma;spacingBottom=4;spacingRight=2;strokeColor=#6F0000;fillColor=#a20025;fontColor=#ffffff;" vertex="1" parent="pgob9W8pVidomaQH4PLx-1">
          <mxGeometry x="100" y="800" width="20" height="20" as="geometry" />
        </mxCell>
        <mxCell id="LUwXPG8r_DOwDY3dfCEj-78" value="&lt;div&gt;Handler B&lt;/div&gt;" style="rounded=1;whiteSpace=wrap;html=1;fillColor=#e1d5e7;strokeColor=#9673a6;" vertex="1" parent="pgob9W8pVidomaQH4PLx-1">
          <mxGeometry x="560" y="710" width="50" height="40" as="geometry" />
        </mxCell>
        <mxCell id="LUwXPG8r_DOwDY3dfCEj-79" value="&lt;div&gt;Handler C&lt;/div&gt;" style="rounded=1;whiteSpace=wrap;html=1;fillColor=#f8cecc;strokeColor=#b85450;" vertex="1" parent="pgob9W8pVidomaQH4PLx-1">
          <mxGeometry x="275" y="960" width="50" height="45" as="geometry" />
        </mxCell>
        <mxCell id="_yWuy7aNl2lMbMd4OHXZ-0" value="&lt;font style=&quot;font-size: 10px&quot;&gt;Task queue&lt;/font&gt;" style="text;html=1;strokeColor=none;fillColor=none;align=center;verticalAlign=middle;whiteSpace=wrap;rounded=0;fontColor=default;" vertex="1" parent="pgob9W8pVidomaQH4PLx-1">
          <mxGeometry x="257.5" y="830" width="85" height="30" as="geometry" />
        </mxCell>
        <mxCell id="_yWuy7aNl2lMbMd4OHXZ-1" value="&lt;font style=&quot;font-size: 10px&quot;&gt;Task queue&lt;/font&gt;" style="text;html=1;strokeColor=none;fillColor=none;align=center;verticalAlign=middle;whiteSpace=wrap;rounded=0;fontColor=default;" vertex="1" parent="pgob9W8pVidomaQH4PLx-1">
          <mxGeometry x="542.5" y="830" width="85" height="30" as="geometry" />
        </mxCell>
        <mxCell id="_yWuy7aNl2lMbMd4OHXZ-2" value="&lt;font style=&quot;font-size: 10px&quot;&gt;Task queue&lt;/font&gt;" style="text;html=1;strokeColor=none;fillColor=none;align=center;verticalAlign=middle;whiteSpace=wrap;rounded=0;fontColor=default;" vertex="1" parent="pgob9W8pVidomaQH4PLx-1">
          <mxGeometry x="257.5" y="580" width="85" height="30" as="geometry" />
        </mxCell>
        <mxCell id="_yWuy7aNl2lMbMd4OHXZ-3" value="&lt;font style=&quot;font-size: 10px&quot;&gt;Task queue&lt;/font&gt;" style="text;html=1;strokeColor=none;fillColor=none;align=center;verticalAlign=middle;whiteSpace=wrap;rounded=0;fontColor=default;" vertex="1" parent="pgob9W8pVidomaQH4PLx-1">
          <mxGeometry x="542.5" y="580" width="85" height="30" as="geometry" />
        </mxCell>
      </root>
    </mxGraphModel>
  </diagram>
</mxfile>
